<?xml version="1.0" encoding="UTF-8" standalone="no"?><!DOCTYPE svg PUBLIC "-//W3C//DTD SVG 1.1//EN" "http://www.w3.org/Graphics/SVG/1.1/DTD/svg11.dtd"><svg width="100%" height="100%" viewBox="0 0 32 32" version="1.1" xmlns="http://www.w3.org/2000/svg" xmlns:xlink="http://www.w3.org/1999/xlink" xml:space="preserve" xmlns:serif="http://www.serif.com/" style="fill-rule:evenodd;clip-rule:evenodd;stroke-linejoin:round;stroke-miterlimit:1.5;"><rect id="eraser" x="0" y="0" width="32" height="32" style="fill:none;"/><g><path d="M23.382,18.461c0.78,-0.781 0.78,-2.048 -0,-2.829l-6.6,-6.6c-0.78,-0.78 -2.048,-0.78 -2.828,0l-9.428,9.429c-0.781,0.78 -0.781,2.047 -0,2.828l5.185,5.185c1.561,1.561 4.096,1.561 5.657,0l8.014,-8.013Z" style="fill:none;stroke:#262626;stroke-width:2px;"/><path d="M25.032,17.282l-9.9,-9.899l-2.828,2.828l9.899,9.899l2.829,-2.828Z" style="fill:#262626;stroke:#262626;stroke-width:2px;stroke-linecap:square;stroke-linejoin:miter;"/><path d="M28.06,14.254l-9.9,-9.899l-4.714,4.714l9.9,9.899l4.714,-4.714Z" style="fill:none;stroke:#262626;stroke-width:2px;stroke-linejoin:miter;"/><path d="M12.304,27.645l7.7,0" style="fill:none;stroke:#262626;stroke-width:2px;stroke-linecap:round;"/></g></svg>