<?xml version="1.0" encoding="UTF-8" standalone="no"?><!DOCTYPE svg PUBLIC "-//W3C//DTD SVG 1.1//EN" "http://www.w3.org/Graphics/SVG/1.1/DTD/svg11.dtd"><svg width="100%" height="100%" viewBox="0 0 32 32" version="1.1" xmlns="http://www.w3.org/2000/svg" xmlns:xlink="http://www.w3.org/1999/xlink" xml:space="preserve" xmlns:serif="http://www.serif.com/" style="fill-rule:evenodd;clip-rule:evenodd;stroke-linejoin:round;stroke-miterlimit:2;"><rect id="grid" x="0" y="0" width="32" height="32" style="fill:none;"/><path d="M15.52,5.728c-0,-0.954 -0.774,-1.728 -1.728,-1.728l-8.064,0c-0.954,0 -1.728,0.774 -1.728,1.728l-0,8.064c-0,0.954 0.774,1.728 1.728,1.728l8.064,-0c0.954,-0 1.728,-0.774 1.728,-1.728l-0,-8.064Zm-9.52,0.272l-0,7.52l7.52,-0l-0,-7.52l-7.52,0Z" style="fill:#262626;"/><path d="M15.52,18.208c-0,-0.954 -0.774,-1.728 -1.728,-1.728l-8.064,-0c-0.954,-0 -1.728,0.774 -1.728,1.728l-0,8.064c-0,0.954 0.774,1.728 1.728,1.728l8.064,-0c0.954,-0 1.728,-0.774 1.728,-1.728l-0,-8.064Zm-9.52,0.272l-0,7.52l7.52,-0l-0,-7.52l-7.52,-0Z" style="fill:#262626;"/><path d="M28,5.728c-0,-0.954 -0.774,-1.728 -1.728,-1.728l-8.064,0c-0.954,0 -1.728,0.774 -1.728,1.728l-0,8.064c-0,0.954 0.774,1.728 1.728,1.728l8.064,-0c0.954,-0 1.728,-0.774 1.728,-1.728l-0,-8.064Zm-9.52,0.272l-0,7.52l7.52,-0l-0,-7.52l-7.52,0Z" style="fill:#262626;"/><path d="M28,18.208c-0,-0.954 -0.774,-1.728 -1.728,-1.728l-8.064,-0c-0.954,-0 -1.728,0.774 -1.728,1.728l-0,8.064c-0,0.954 0.774,1.728 1.728,1.728l8.064,-0c0.954,-0 1.728,-0.774 1.728,-1.728l-0,-8.064Zm-9.52,0.272l-0,7.52l7.52,-0l-0,-7.52l-7.52,-0Z" style="fill:#262626;"/></svg>